<svg id="visual" viewBox="0 0 1200 450" width="1200" height="450" xmlns="http://www.w3.org/2000/svg" xmlns:xlink="http://www.w3.org/1999/xlink" version="1.1"><rect x="0" y="0" width="1200" height="450" fill="#FCAF3C"></rect><path d="M0 196L171 230L343 182L514 227L686 177L857 183L1029 162L1200 252L1200 0L1029 0L857 0L686 0L514 0L343 0L171 0L0 0Z" fill="#f5730a"></path><path d="M0 186L171 166L343 133L514 211L686 168L857 186L1029 207L1200 128L1200 0L1029 0L857 0L686 0L514 0L343 0L171 0L0 0Z" fill="#da5b09"></path><path d="M0 134L171 132L343 122L514 150L686 95L857 123L1029 119L1200 113L1200 0L1029 0L857 0L686 0L514 0L343 0L171 0L0 0Z" fill="#be4407"></path><path d="M0 89L171 123L343 117L514 76L686 116L857 74L1029 101L1200 103L1200 0L1029 0L857 0L686 0L514 0L343 0L171 0L0 0Z" fill="#a32d04"></path><path d="M0 77L171 49L343 36L514 41L686 43L857 35L1029 71L1200 32L1200 0L1029 0L857 0L686 0L514 0L343 0L171 0L0 0Z" fill="#871400"></path></svg>